<svg width="58" height="54" viewBox="0 0 58 54" fill="none" xmlns="http://www.w3.org/2000/svg">
<g id="Frame 3">
<path id="path68" d="M43.5254 31.8779L28.9897 29.0792L25.0283 16.5465L39.564 19.3448L43.5254 31.8779Z" fill="#2C99B0"/>
<path id="path70" d="M32.4395 37.2008L17.9039 34.4021L28.9898 29.0792L43.5254 31.8779L32.4395 37.2008Z" fill="white"/>
<path id="path72" d="M43.5254 31.8779L39.564 19.3448L28.478 24.6681L32.4395 37.2008L43.5254 31.8779ZM14.5358 17.9855L46.166 2.79873L57.4691 38.5568L25.8389 53.744L14.5358 17.9855Z" fill="#F6B800"/>
<path id="path74" d="M14.5358 17.9855L0 15.1872L31.6301 0L46.166 2.79872L14.5358 17.9855Z" fill="white"/>
<path id="path76" d="M25.8389 53.744L11.3031 50.9453L0 15.1872L14.5358 17.9855L25.8389 53.744Z" fill="#2C99B0"/>
</g>
</svg>
