<svg width="145" height="173" viewBox="0 0 145 173" fill="none" xmlns="http://www.w3.org/2000/svg">
<path d="M50.0493 63.3987L86.1067 115.383L36.0573 98.4347L0 46.4508L50.0493 63.3987Z" fill="white"/>
<path d="M119.66 32.569L155.717 84.5544L127.484 140.412L91.4253 88.4279L119.66 32.569Z" fill="#F25597"/>
<path d="M21.8147 119.256L50.0493 63.3988L0 46.4509L23.4787 -3.05176e-05L119.66 32.569L91.4254 88.428L147.988 107.581L124.509 154.032L21.8147 119.256Z" fill="#86D8F0"/>
<path d="M147.988 107.581L184.045 159.567L160.567 206.016L124.509 154.032L147.988 107.581Z" fill="#F25597"/>
<path d="M124.509 154.032L160.567 206.016L57.8733 171.24L21.8146 119.256L124.509 154.032Z" fill="white"/>
</svg>
